<svg version="1.2" xmlns="http://www.w3.org/2000/svg" viewBox="0 0 512 512" width="512" height="512">
	<title>SL23_black_on_transparent</title>
	<style>
		.s0 { fill: #ffffff } 
	</style>
	<path id="SL" class="s0" aria-label="SL"  d="m134.2 227.1h44.2q15.2 0 28.1 5.7 13.3 5.8 22.7 16.2 9.7 10.1 14.8 24.5 5.4 14.1 5.4 31 0 15.8-5.1 29.5-4.7 13.7-13.7 23.8-9 9.7-21.2 15.4-12.2 5.8-27.4 5.8h-111.6v-45.4h98.7q7.2 0 13.7-1.8 6.8-1.8 11.5-5.4 4.7-3.6 7.5-9 2.9-5.4 2.9-12.9 0-14.1-9.3-22-9-7.9-22.7-7.9h-29.2q-18.3 0-33.5-4-15.1-3.9-25.5-12.6-10.5-8.6-16.2-22.3-5.8-13.7-5.8-32.7 0-13.4 4.7-26 4.7-12.6 13-21.9 8.2-9.7 20.1-15.5 11.9-5.8 26.3-5.8h101.2v47.9h-82.5q-7.2 0-13.3 1.1-6.1 0.7-10.8 3.2-4.7 2.2-7.2 6.9-2.5 4.7-2.5 12.6 0 9 6.1 15.5 6.1 6.1 16.6 6.1zm182.5-93.3v203.8h132.8v41.4h-176v-245.2z"/>
</svg>